<?xml version="1.0" standalone="no"?>
<!DOCTYPE svg PUBLIC "-//W3C//DTD SVG 20010904//EN"
 "http://www.w3.org/TR/2001/REC-SVG-20010904/DTD/svg10.dtd">
<svg version="1.0" xmlns="http://www.w3.org/2000/svg"
 width="255.000000pt" height="300.000000pt" viewBox="0 0 255.000000 300.000000"
 preserveAspectRatio="xMidYMid meet">
<metadata>
Created by potrace 1.15, written by Peter Selinger 2001-2017
</metadata>
<g transform="translate(0.000000,300.000000) scale(0.100000,-0.100000)"
fill="#000000" stroke="none">
<path d="M1226 2871 c-84 -108 -125 -197 -160 -353 -5 -24 -11 -28 -41 -28
-19 0 -35 4 -35 9 0 11 -121 -12 -210 -39 -67 -20 -219 -103 -233 -126 -11
-19 -30 -17 -55 6 -38 36 -143 99 -201 121 -63 24 -216 53 -237 45 -19 -7 -54
-80 -54 -113 1 -105 115 -309 216 -385 29 -22 41 -38 38 -48 -4 -8 -12 -89
-19 -180 -8 -103 -19 -179 -29 -204 -23 -56 -20 -71 22 -99 77 -51 368 -184
379 -174 2 2 -19 18 -47 36 -51 33 -80 65 -80 88 0 9 17 13 53 13 72 0 160 16
202 36 23 11 45 33 62 63 84 149 117 182 222 222 81 31 156 28 259 -10 46 -17
94 -31 106 -31 39 0 98 29 174 87 40 31 76 52 80 48 14 -13 4 -100 -18 -159
-28 -74 -149 -234 -241 -320 -84 -77 -167 -121 -263 -137 -83 -14 -221 -7
-326 16 -41 9 -82 18 -90 18 -11 2 -18 -30 -32 -158 -32 -298 -59 -510 -75
-578 -14 -65 -16 -68 -76 -111 -101 -72 -122 -99 -122 -156 0 -52 19 -87 67
-123 77 -57 236 -8 309 95 18 24 22 47 25 131 3 103 16 194 54 366 11 52 20
99 20 104 0 5 8 6 17 3 57 -22 180 -46 253 -49 l85 -4 13 -79 c17 -104 21
-352 5 -379 -6 -11 -34 -43 -62 -72 -75 -77 -86 -138 -39 -206 41 -58 134 -74
213 -38 52 24 78 53 112 126 31 67 34 117 15 230 -6 39 -12 158 -12 265 l0
195 48 17 c26 10 85 39 132 66 84 49 85 49 97 28 16 -27 15 -149 -1 -201 -8
-29 -25 -50 -61 -77 -105 -79 -113 -174 -20 -236 74 -48 202 -50 256 -4 49 41
62 76 54 148 -5 46 0 98 18 201 45 248 45 245 -12 306 -26 28 -26 29 -6 43 46
35 52 35 80 -1 14 -20 68 -71 119 -115 52 -44 99 -93 106 -110 17 -40 8 -165
-14 -208 -9 -18 -37 -47 -61 -64 -55 -39 -79 -86 -72 -140 6 -46 27 -72 82
-101 54 -29 176 -31 221 -3 56 33 68 67 70 196 1 64 9 146 18 185 9 39 19 107
23 152 l6 82 -48 58 c-26 32 -52 69 -57 83 -6 14 -11 77 -13 140 -4 147 -25
244 -75 346 -35 72 -46 85 -107 127 -82 56 -160 91 -248 112 -73 17 -189 19
-247 6 -21 -5 -38 -7 -38 -5 0 2 12 29 26 60 37 81 54 133 54 164 0 22 -7 30
-42 45 -28 12 -84 60 -158 135 -63 65 -123 121 -133 127 -16 8 -17 15 -8 54
35 149 -7 299 -116 420 -60 66 -64 66 -117 0z"/>
<path d="M2127 2685 c5 -70 -20 -202 -48 -257 -42 -82 -129 -148 -194 -148
-14 0 -25 -4 -25 -8 0 -5 33 -32 74 -60 85 -59 119 -97 136 -148 12 -35 9
-112 -5 -146 -5 -12 8 -25 56 -53 l62 -36 36 29 c96 77 199 236 238 365 8 27
15 90 15 139 l0 88 -42 56 c-24 31 -57 70 -74 86 -41 38 -131 84 -183 93 -35
5 -43 11 -46 33 -2 15 -2 0 0 -33z"/>
<path d="M1014 1711 c-63 -29 -95 -91 -61 -119 13 -11 112 -42 134 -42 13 0
93 114 93 132 0 4 -9 17 -20 28 -26 26 -90 26 -146 1z"/>
</g>
</svg>
